<mxfile host="app.diagrams.net" agent="Mozilla/5.0 (Windows NT 10.0; Win64; x64) AppleWebKit/537.36 (KHTML, like Gecko) Chrome/131.0.0.0 Safari/537.36" version="24.9.3">
  <diagram name="Page-1" id="VsC5lBzDeZKOc5Q0SXW6">
    <mxGraphModel dx="3498" dy="2226" grid="1" gridSize="10" guides="1" tooltips="1" connect="1" arrows="1" fold="1" page="1" pageScale="1" pageWidth="850" pageHeight="1100" math="0" shadow="0">
      <root>
        <mxCell id="0" />
        <mxCell id="1" parent="0" />
        <mxCell id="fvcA-mYY2RWgphkwgF5b-6" value="User" style="swimlane;fontStyle=1;align=center;verticalAlign=top;childLayout=stackLayout;horizontal=1;startSize=26;horizontalStack=0;resizeParent=1;resizeParentMax=0;resizeLast=0;collapsible=1;marginBottom=0;whiteSpace=wrap;html=1;fillColor=#ffe6cc;strokeColor=#d79b00;" vertex="1" parent="1">
          <mxGeometry x="60" y="70" width="250" height="230" as="geometry" />
        </mxCell>
        <mxCell id="fvcA-mYY2RWgphkwgF5b-7" value="+userID &lt;font style=&quot;font-size: 14px;&quot;&gt;: &lt;/font&gt;int&lt;div&gt;+name &lt;font style=&quot;font-size: 14px;&quot;&gt;: &lt;/font&gt;string&lt;/div&gt;&lt;div&gt;+email &lt;font style=&quot;font-size: 14px;&quot;&gt;: &lt;/font&gt;string&lt;/div&gt;&lt;div&gt;-phoneNumber &lt;font style=&quot;font-size: 14px;&quot;&gt;: &lt;/font&gt;string&lt;/div&gt;&lt;div&gt;-address : string&lt;/div&gt;" style="text;strokeColor=#d79b00;fillColor=#ffe6cc;align=left;verticalAlign=top;spacingLeft=4;spacingRight=4;overflow=hidden;rotatable=0;points=[[0,0.5],[1,0.5]];portConstraint=eastwest;whiteSpace=wrap;html=1;" vertex="1" parent="fvcA-mYY2RWgphkwgF5b-6">
          <mxGeometry y="26" width="250" height="84" as="geometry" />
        </mxCell>
        <mxCell id="fvcA-mYY2RWgphkwgF5b-8" value="" style="line;strokeWidth=1;fillColor=none;align=left;verticalAlign=middle;spacingTop=-1;spacingLeft=3;spacingRight=3;rotatable=0;labelPosition=right;points=[];portConstraint=eastwest;strokeColor=inherit;" vertex="1" parent="fvcA-mYY2RWgphkwgF5b-6">
          <mxGeometry y="110" width="250" height="8" as="geometry" />
        </mxCell>
        <mxCell id="fvcA-mYY2RWgphkwgF5b-9" value="+ register(string name , string phoneNumber&amp;nbsp; , string&amp;nbsp;&amp;nbsp;email , string&amp;nbsp;password ): boolean&lt;div&gt;+ login(&lt;span style=&quot;background-color: initial;&quot;&gt;string&lt;/span&gt;&lt;span style=&quot;background-color: initial;&quot;&gt;&amp;nbsp;&amp;nbsp;email , string ,&lt;/span&gt;&lt;span style=&quot;background-color: initial;&quot;&gt;&amp;nbsp;password&lt;/span&gt;&lt;span style=&quot;background-color: initial;&quot;&gt;&amp;nbsp;)&amp;nbsp;&lt;/span&gt;&lt;span style=&quot;background-color: initial;&quot;&gt;: boolean&lt;/span&gt;&lt;/div&gt;&lt;div&gt;+ updateProfile(string name , string phoneNumber&amp;nbsp; , string&amp;nbsp;&amp;nbsp;email , string address ): boolean&lt;span style=&quot;background-color: initial;&quot;&gt;&lt;/span&gt;&lt;/div&gt;&lt;div&gt;&lt;div&gt;&lt;br&gt;&lt;/div&gt;&lt;/div&gt;" style="text;strokeColor=#d79b00;fillColor=#ffe6cc;align=left;verticalAlign=top;spacingLeft=4;spacingRight=4;overflow=hidden;rotatable=0;points=[[0,0.5],[1,0.5]];portConstraint=eastwest;whiteSpace=wrap;html=1;" vertex="1" parent="fvcA-mYY2RWgphkwgF5b-6">
          <mxGeometry y="118" width="250" height="112" as="geometry" />
        </mxCell>
        <mxCell id="fvcA-mYY2RWgphkwgF5b-10" value="Transaction" style="swimlane;fontStyle=1;align=center;verticalAlign=top;childLayout=stackLayout;horizontal=1;startSize=26;horizontalStack=0;resizeParent=1;resizeParentMax=0;resizeLast=0;collapsible=1;marginBottom=0;whiteSpace=wrap;html=1;fillColor=#ffe6cc;strokeColor=#d79b00;" vertex="1" parent="1">
          <mxGeometry x="540" y="75" width="250" height="210" as="geometry" />
        </mxCell>
        <mxCell id="fvcA-mYY2RWgphkwgF5b-11" value="+transactionID &lt;font style=&quot;font-size: 14px;&quot;&gt;: &lt;/font&gt;int&lt;div&gt;+amount&lt;font style=&quot;font-size: 14px;&quot;&gt;: &lt;/font&gt;int&lt;/div&gt;&lt;div&gt;+status&lt;font style=&quot;font-size: 14px;&quot;&gt;: &lt;/font&gt;string&lt;/div&gt;&lt;div&gt;&lt;br&gt;&lt;/div&gt;" style="text;strokeColor=#d79b00;fillColor=#ffe6cc;align=left;verticalAlign=top;spacingLeft=4;spacingRight=4;overflow=hidden;rotatable=0;points=[[0,0.5],[1,0.5]];portConstraint=eastwest;whiteSpace=wrap;html=1;" vertex="1" parent="fvcA-mYY2RWgphkwgF5b-10">
          <mxGeometry y="26" width="250" height="64" as="geometry" />
        </mxCell>
        <mxCell id="fvcA-mYY2RWgphkwgF5b-12" value="" style="line;strokeWidth=1;fillColor=none;align=left;verticalAlign=middle;spacingTop=-1;spacingLeft=3;spacingRight=3;rotatable=0;labelPosition=right;points=[];portConstraint=eastwest;strokeColor=inherit;" vertex="1" parent="fvcA-mYY2RWgphkwgF5b-10">
          <mxGeometry y="90" width="250" height="8" as="geometry" />
        </mxCell>
        <mxCell id="fvcA-mYY2RWgphkwgF5b-13" value="&lt;div&gt;&lt;div&gt;+initiateTransaction(User payer , User payee , int amount) : boolean&lt;/div&gt;&lt;/div&gt;&lt;div&gt;updateStatus(string status) : boolean&lt;/div&gt;" style="text;strokeColor=#d79b00;fillColor=#ffe6cc;align=left;verticalAlign=top;spacingLeft=4;spacingRight=4;overflow=hidden;rotatable=0;points=[[0,0.5],[1,0.5]];portConstraint=eastwest;whiteSpace=wrap;html=1;" vertex="1" parent="fvcA-mYY2RWgphkwgF5b-10">
          <mxGeometry y="98" width="250" height="112" as="geometry" />
        </mxCell>
        <mxCell id="fvcA-mYY2RWgphkwgF5b-18" value="PaymentMethod" style="swimlane;fontStyle=1;align=center;verticalAlign=top;childLayout=stackLayout;horizontal=1;startSize=26;horizontalStack=0;resizeParent=1;resizeParentMax=0;resizeLast=0;collapsible=1;marginBottom=0;whiteSpace=wrap;html=1;fillColor=#ffe6cc;strokeColor=#d79b00;" vertex="1" parent="1">
          <mxGeometry x="50" y="390" width="260" height="140" as="geometry" />
        </mxCell>
        <mxCell id="fvcA-mYY2RWgphkwgF5b-19" value="&lt;font face=&quot;Helvetica&quot;&gt;&lt;font style=&quot;&quot;&gt;&lt;span style=&quot;color: rgb(56, 58, 66); white-space: pre; background-color: rgb(249, 249, 249);&quot;&gt;-&lt;/span&gt;&lt;span style=&quot;white-space: pre; background-color: rgb(249, 249, 249);&quot;&gt;&lt;font color=&quot;#060708&quot;&gt;paymentID :&lt;/font&gt;&lt;/span&gt;&lt;/font&gt;int&lt;/font&gt;&lt;div&gt;+type&lt;font style=&quot;font-size: 14px;&quot;&gt;: &lt;/font&gt;string&lt;/div&gt;&lt;div&gt;-details&lt;font style=&quot;font-size: 14px;&quot;&gt;: &lt;/font&gt;string&lt;/div&gt;&lt;div&gt;&lt;br&gt;&lt;/div&gt;" style="text;strokeColor=#d79b00;fillColor=#ffe6cc;align=left;verticalAlign=top;spacingLeft=4;spacingRight=4;overflow=hidden;rotatable=0;points=[[0,0.5],[1,0.5]];portConstraint=eastwest;whiteSpace=wrap;html=1;" vertex="1" parent="fvcA-mYY2RWgphkwgF5b-18">
          <mxGeometry y="26" width="260" height="64" as="geometry" />
        </mxCell>
        <mxCell id="fvcA-mYY2RWgphkwgF5b-20" value="" style="line;strokeWidth=1;fillColor=none;align=left;verticalAlign=middle;spacingTop=-1;spacingLeft=3;spacingRight=3;rotatable=0;labelPosition=right;points=[];portConstraint=eastwest;strokeColor=inherit;" vertex="1" parent="fvcA-mYY2RWgphkwgF5b-18">
          <mxGeometry y="90" width="260" height="8" as="geometry" />
        </mxCell>
        <mxCell id="fvcA-mYY2RWgphkwgF5b-21" value="&lt;div&gt;&lt;div&gt;+chooseMethod(string type , string details) : void&lt;/div&gt;&lt;/div&gt;&lt;div&gt;&lt;br&gt;&lt;/div&gt;" style="text;strokeColor=#d79b00;fillColor=#ffe6cc;align=left;verticalAlign=top;spacingLeft=4;spacingRight=4;overflow=hidden;rotatable=0;points=[[0,0.5],[1,0.5]];portConstraint=eastwest;whiteSpace=wrap;html=1;" vertex="1" parent="fvcA-mYY2RWgphkwgF5b-18">
          <mxGeometry y="98" width="260" height="42" as="geometry" />
        </mxCell>
        <mxCell id="fvcA-mYY2RWgphkwgF5b-26" value="TransactionHistory" style="swimlane;fontStyle=1;align=center;verticalAlign=top;childLayout=stackLayout;horizontal=1;startSize=26;horizontalStack=0;resizeParent=1;resizeParentMax=0;resizeLast=0;collapsible=1;marginBottom=0;whiteSpace=wrap;html=1;fillColor=#ffe6cc;strokeColor=#d79b00;" vertex="1" parent="1">
          <mxGeometry x="540" y="410" width="250" height="130" as="geometry" />
        </mxCell>
        <mxCell id="fvcA-mYY2RWgphkwgF5b-27" value="&lt;div&gt;-userID : int&lt;/div&gt;-transactionID &lt;font style=&quot;font-size: 14px;&quot;&gt;: &lt;/font&gt;int&lt;div&gt;&lt;br&gt;&lt;/div&gt;" style="text;strokeColor=#d79b00;fillColor=#ffe6cc;align=left;verticalAlign=top;spacingLeft=4;spacingRight=4;overflow=hidden;rotatable=0;points=[[0,0.5],[1,0.5]];portConstraint=eastwest;whiteSpace=wrap;html=1;" vertex="1" parent="fvcA-mYY2RWgphkwgF5b-26">
          <mxGeometry y="26" width="250" height="44" as="geometry" />
        </mxCell>
        <mxCell id="fvcA-mYY2RWgphkwgF5b-28" value="" style="line;strokeWidth=1;fillColor=none;align=left;verticalAlign=middle;spacingTop=-1;spacingLeft=3;spacingRight=3;rotatable=0;labelPosition=right;points=[];portConstraint=eastwest;strokeColor=inherit;" vertex="1" parent="fvcA-mYY2RWgphkwgF5b-26">
          <mxGeometry y="70" width="250" height="8" as="geometry" />
        </mxCell>
        <mxCell id="fvcA-mYY2RWgphkwgF5b-29" value="&lt;div&gt;&lt;span style=&quot;background-color: initial;&quot;&gt;+addTransactionRecord(Transaction) : boolean&lt;/span&gt;&lt;/div&gt;&lt;div&gt;&lt;br&gt;&lt;/div&gt;" style="text;strokeColor=#d79b00;fillColor=#ffe6cc;align=left;verticalAlign=top;spacingLeft=4;spacingRight=4;overflow=hidden;rotatable=0;points=[[0,0.5],[1,0.5]];portConstraint=eastwest;whiteSpace=wrap;html=1;" vertex="1" parent="fvcA-mYY2RWgphkwgF5b-26">
          <mxGeometry y="78" width="250" height="52" as="geometry" />
        </mxCell>
        <mxCell id="fvcA-mYY2RWgphkwgF5b-31" value="VodafoneCash" style="swimlane;fontStyle=1;align=center;verticalAlign=top;childLayout=stackLayout;horizontal=1;startSize=26;horizontalStack=0;resizeParent=1;resizeParentMax=0;resizeLast=0;collapsible=1;marginBottom=0;whiteSpace=wrap;html=1;fillColor=#ffe6cc;strokeColor=#d79b00;" vertex="1" parent="1">
          <mxGeometry x="-140" y="690" width="250" height="170" as="geometry" />
        </mxCell>
        <mxCell id="fvcA-mYY2RWgphkwgF5b-32" value="&lt;font&gt;&lt;span style=&quot;color: rgb(56, 58, 66); white-space: pre; background-color: rgb(249, 249, 249);&quot;&gt;-&lt;/span&gt;&lt;span style=&quot;white-space: pre; background-color: rgb(249, 249, 249);&quot;&gt;&lt;font color=&quot;#060708&quot;&gt;phoneNumber:string&lt;/font&gt;&lt;/span&gt;&lt;/font&gt;&lt;div&gt;-PIN&lt;font style=&quot;font-size: 14px;&quot;&gt;: &lt;/font&gt;string&lt;/div&gt;&lt;div&gt;-balance&lt;font style=&quot;font-size: 14px;&quot;&gt;: &lt;/font&gt;int&lt;/div&gt;&lt;div&gt;&lt;br&gt;&lt;/div&gt;" style="text;strokeColor=#d79b00;fillColor=#ffe6cc;align=left;verticalAlign=top;spacingLeft=4;spacingRight=4;overflow=hidden;rotatable=0;points=[[0,0.5],[1,0.5]];portConstraint=eastwest;whiteSpace=wrap;html=1;" vertex="1" parent="fvcA-mYY2RWgphkwgF5b-31">
          <mxGeometry y="26" width="250" height="64" as="geometry" />
        </mxCell>
        <mxCell id="fvcA-mYY2RWgphkwgF5b-33" value="" style="line;strokeWidth=1;fillColor=none;align=left;verticalAlign=middle;spacingTop=-1;spacingLeft=3;spacingRight=3;rotatable=0;labelPosition=right;points=[];portConstraint=eastwest;strokeColor=inherit;" vertex="1" parent="fvcA-mYY2RWgphkwgF5b-31">
          <mxGeometry y="90" width="250" height="8" as="geometry" />
        </mxCell>
        <mxCell id="fvcA-mYY2RWgphkwgF5b-34" value="&lt;div&gt;&lt;div&gt;+sendMoney(string phoneNumber , int amount): boolean&lt;/div&gt;&lt;/div&gt;&lt;div&gt;+checkBalance(string phoneNumber , string PIN): int&lt;/div&gt;" style="text;strokeColor=#d79b00;fillColor=#ffe6cc;align=left;verticalAlign=top;spacingLeft=4;spacingRight=4;overflow=hidden;rotatable=0;points=[[0,0.5],[1,0.5]];portConstraint=eastwest;whiteSpace=wrap;html=1;" vertex="1" parent="fvcA-mYY2RWgphkwgF5b-31">
          <mxGeometry y="98" width="250" height="72" as="geometry" />
        </mxCell>
        <mxCell id="fvcA-mYY2RWgphkwgF5b-35" value="Bank" style="swimlane;fontStyle=1;align=center;verticalAlign=top;childLayout=stackLayout;horizontal=1;startSize=26;horizontalStack=0;resizeParent=1;resizeParentMax=0;resizeLast=0;collapsible=1;marginBottom=0;whiteSpace=wrap;html=1;fillColor=#ffe6cc;strokeColor=#d79b00;" vertex="1" parent="1">
          <mxGeometry x="280" y="700" width="250" height="170" as="geometry" />
        </mxCell>
        <mxCell id="fvcA-mYY2RWgphkwgF5b-36" value="&lt;span style=&quot;white-space: pre; background-color: rgb(249, 249, 249);&quot;&gt;&lt;font color=&quot;#383a42&quot;&gt;-&lt;/font&gt;&lt;font style=&quot;&quot; face=&quot;Helvetica&quot;&gt;account&lt;/font&gt;&lt;/span&gt;&lt;span style=&quot;font-family: Helvetica; white-space: pre; background-color: rgb(249, 249, 249);&quot;&gt;&lt;font color=&quot;#060708&quot;&gt;Number:string&lt;/font&gt;&lt;/span&gt;&lt;div&gt;-bankName&lt;font style=&quot;font-size: 14px;&quot;&gt;: &lt;/font&gt;string&lt;/div&gt;&lt;div&gt;-balance&lt;font style=&quot;font-size: 14px;&quot;&gt;: &lt;/font&gt;int&lt;/div&gt;&lt;div&gt;&lt;br&gt;&lt;/div&gt;" style="text;strokeColor=#d79b00;fillColor=#ffe6cc;align=left;verticalAlign=top;spacingLeft=4;spacingRight=4;overflow=hidden;rotatable=0;points=[[0,0.5],[1,0.5]];portConstraint=eastwest;whiteSpace=wrap;html=1;" vertex="1" parent="fvcA-mYY2RWgphkwgF5b-35">
          <mxGeometry y="26" width="250" height="64" as="geometry" />
        </mxCell>
        <mxCell id="fvcA-mYY2RWgphkwgF5b-37" value="" style="line;strokeWidth=1;fillColor=none;align=left;verticalAlign=middle;spacingTop=-1;spacingLeft=3;spacingRight=3;rotatable=0;labelPosition=right;points=[];portConstraint=eastwest;strokeColor=inherit;" vertex="1" parent="fvcA-mYY2RWgphkwgF5b-35">
          <mxGeometry y="90" width="250" height="8" as="geometry" />
        </mxCell>
        <mxCell id="fvcA-mYY2RWgphkwgF5b-38" value="&lt;div&gt;+sendMoney(string accountNumber, int amount , string bankName): boolean&lt;/div&gt;&lt;div&gt;+checkBalance(string accountNumber, string PIN): int&lt;/div&gt;" style="text;strokeColor=#d79b00;fillColor=#ffe6cc;align=left;verticalAlign=top;spacingLeft=4;spacingRight=4;overflow=hidden;rotatable=0;points=[[0,0.5],[1,0.5]];portConstraint=eastwest;whiteSpace=wrap;html=1;" vertex="1" parent="fvcA-mYY2RWgphkwgF5b-35">
          <mxGeometry y="98" width="250" height="72" as="geometry" />
        </mxCell>
        <mxCell id="fvcA-mYY2RWgphkwgF5b-39" value="Notification" style="swimlane;fontStyle=1;align=center;verticalAlign=top;childLayout=stackLayout;horizontal=1;startSize=26;horizontalStack=0;resizeParent=1;resizeParentMax=0;resizeLast=0;collapsible=1;marginBottom=0;whiteSpace=wrap;html=1;fillColor=#ffe6cc;strokeColor=#d79b00;" vertex="1" parent="1">
          <mxGeometry x="-410" y="80" width="250" height="200" as="geometry" />
        </mxCell>
        <mxCell id="fvcA-mYY2RWgphkwgF5b-40" value="-notificationID : int&lt;div&gt;-message : string&lt;/div&gt;&lt;div&gt;-userID : int&lt;/div&gt;&lt;div&gt;&lt;br&gt;&lt;/div&gt;" style="text;strokeColor=#d79b00;fillColor=#ffe6cc;align=left;verticalAlign=top;spacingLeft=4;spacingRight=4;overflow=hidden;rotatable=0;points=[[0,0.5],[1,0.5]];portConstraint=eastwest;whiteSpace=wrap;html=1;" vertex="1" parent="fvcA-mYY2RWgphkwgF5b-39">
          <mxGeometry y="26" width="250" height="54" as="geometry" />
        </mxCell>
        <mxCell id="fvcA-mYY2RWgphkwgF5b-41" value="" style="line;strokeWidth=1;fillColor=none;align=left;verticalAlign=middle;spacingTop=-1;spacingLeft=3;spacingRight=3;rotatable=0;labelPosition=right;points=[];portConstraint=eastwest;strokeColor=inherit;" vertex="1" parent="fvcA-mYY2RWgphkwgF5b-39">
          <mxGeometry y="80" width="250" height="8" as="geometry" />
        </mxCell>
        <mxCell id="fvcA-mYY2RWgphkwgF5b-42" value="&lt;div&gt;&lt;div&gt;+sendNotification(string message , int userID) : boolean&lt;/div&gt;&lt;/div&gt;&lt;div&gt;+getNotification(int userID, sting phoneNumber) : boolean&lt;/div&gt;" style="text;strokeColor=#d79b00;fillColor=#ffe6cc;align=left;verticalAlign=top;spacingLeft=4;spacingRight=4;overflow=hidden;rotatable=0;points=[[0,0.5],[1,0.5]];portConstraint=eastwest;whiteSpace=wrap;html=1;" vertex="1" parent="fvcA-mYY2RWgphkwgF5b-39">
          <mxGeometry y="88" width="250" height="112" as="geometry" />
        </mxCell>
        <mxCell id="fvcA-mYY2RWgphkwgF5b-44" value="" style="verticalAlign=bottom;html=1;ellipse;fillColor=strokeColor;fontFamily=Helvetica;fontSize=11;fontColor=default;" vertex="1" parent="1">
          <mxGeometry x="-10" y="563" width="410" height="4" as="geometry" />
        </mxCell>
        <mxCell id="fvcA-mYY2RWgphkwgF5b-45" value="" style="edgeStyle=elbowEdgeStyle;html=1;endSize=12;endArrow=block;endFill=0;elbow=horizontal;rounded=0;labelBackgroundColor=default;fontFamily=Helvetica;fontSize=11;fontColor=default;shape=connector;" edge="1" source="fvcA-mYY2RWgphkwgF5b-44" parent="1" target="fvcA-mYY2RWgphkwgF5b-21">
          <mxGeometry x="1" relative="1" as="geometry">
            <mxPoint x="230" y="540" as="targetPoint" />
            <Array as="points">
              <mxPoint x="182" y="565" />
            </Array>
          </mxGeometry>
        </mxCell>
        <mxCell id="fvcA-mYY2RWgphkwgF5b-46" value="" style="edgeStyle=elbowEdgeStyle;html=1;elbow=vertical;verticalAlign=bottom;endArrow=none;rounded=0;labelBackgroundColor=default;fontFamily=Helvetica;fontSize=11;fontColor=default;startSize=14;shape=connector;" edge="1" source="fvcA-mYY2RWgphkwgF5b-44" parent="1" target="fvcA-mYY2RWgphkwgF5b-35">
          <mxGeometry x="1" relative="1" as="geometry">
            <mxPoint x="300" y="590" as="targetPoint" />
            <Array as="points">
              <mxPoint x="270" y="565" />
            </Array>
          </mxGeometry>
        </mxCell>
        <mxCell id="fvcA-mYY2RWgphkwgF5b-47" value="" style="edgeStyle=elbowEdgeStyle;html=1;elbow=vertical;verticalAlign=bottom;endArrow=none;rounded=0;labelBackgroundColor=default;fontFamily=Helvetica;fontSize=11;fontColor=default;startSize=14;shape=connector;" edge="1" source="fvcA-mYY2RWgphkwgF5b-44" parent="1" target="fvcA-mYY2RWgphkwgF5b-31">
          <mxGeometry x="1" relative="1" as="geometry">
            <mxPoint x="160" y="590" as="targetPoint" />
            <Array as="points">
              <mxPoint x="190" y="565" />
            </Array>
          </mxGeometry>
        </mxCell>
        <mxCell id="fvcA-mYY2RWgphkwgF5b-48" value="" style="endArrow=none;startArrow=none;endFill=0;startFill=0;endSize=8;html=1;verticalAlign=bottom;labelBackgroundColor=none;strokeWidth=3;rounded=0;exitX=0.987;exitY=1.003;exitDx=0;exitDy=0;exitPerimeter=0;" edge="1" parent="1" source="fvcA-mYY2RWgphkwgF5b-9" target="fvcA-mYY2RWgphkwgF5b-26">
          <mxGeometry width="160" relative="1" as="geometry">
            <mxPoint x="150" y="330" as="sourcePoint" />
            <mxPoint x="310" y="330" as="targetPoint" />
          </mxGeometry>
        </mxCell>
        <mxCell id="fvcA-mYY2RWgphkwgF5b-49" value="1" style="text;html=1;align=center;verticalAlign=middle;resizable=0;points=[];autosize=1;strokeColor=none;fillColor=none;fontSize=14;" vertex="1" parent="1">
          <mxGeometry x="310" y="285" width="30" height="30" as="geometry" />
        </mxCell>
        <mxCell id="fvcA-mYY2RWgphkwgF5b-50" value="1" style="text;html=1;align=center;verticalAlign=middle;resizable=0;points=[];autosize=1;strokeColor=none;fillColor=none;fontSize=14;" vertex="1" parent="1">
          <mxGeometry x="515" y="380" width="30" height="30" as="geometry" />
        </mxCell>
        <mxCell id="fvcA-mYY2RWgphkwgF5b-51" value="&lt;font&gt;1&lt;/font&gt;" style="endArrow=open;html=1;endSize=12;startArrow=diamondThin;startSize=14;startFill=0;edgeStyle=orthogonalEdgeStyle;align=left;verticalAlign=bottom;rounded=0;entryX=0.5;entryY=0;entryDx=0;entryDy=0;exitX=0.479;exitY=0.993;exitDx=0;exitDy=0;exitPerimeter=0;fontSize=14;" edge="1" parent="1" source="fvcA-mYY2RWgphkwgF5b-9" target="fvcA-mYY2RWgphkwgF5b-18">
          <mxGeometry x="-0.6005" y="10" relative="1" as="geometry">
            <mxPoint x="220" y="330" as="sourcePoint" />
            <mxPoint x="310" y="330" as="targetPoint" />
            <Array as="points" />
            <mxPoint as="offset" />
          </mxGeometry>
        </mxCell>
        <mxCell id="fvcA-mYY2RWgphkwgF5b-52" value="" style="endArrow=open;startArrow=none;endFill=0;startFill=0;endSize=8;html=1;verticalAlign=bottom;labelBackgroundColor=none;strokeWidth=1;rounded=0;exitX=1.011;exitY=0.914;exitDx=0;exitDy=0;exitPerimeter=0;entryX=0.996;entryY=0.78;entryDx=0;entryDy=0;entryPerimeter=0;" edge="1" parent="1" source="fvcA-mYY2RWgphkwgF5b-36" target="fvcA-mYY2RWgphkwgF5b-13">
          <mxGeometry width="160" relative="1" as="geometry">
            <mxPoint x="150" y="560" as="sourcePoint" />
            <mxPoint x="793" y="243" as="targetPoint" />
            <Array as="points">
              <mxPoint x="920" y="784" />
              <mxPoint x="920" y="500" />
              <mxPoint x="920" y="320" />
              <mxPoint x="920" y="260" />
            </Array>
          </mxGeometry>
        </mxCell>
        <mxCell id="fvcA-mYY2RWgphkwgF5b-53" value="&lt;span style=&quot;border: 0px solid rgb(227, 227, 227); box-sizing: border-box; --tw-border-spacing-x: 0; --tw-border-spacing-y: 0; --tw-translate-x: 0; --tw-translate-y: 0; --tw-rotate: 0; --tw-skew-x: 0; --tw-skew-y: 0; --tw-scale-x: 1; --tw-scale-y: 1; --tw-pan-x: ; --tw-pan-y: ; --tw-pinch-zoom: ; --tw-scroll-snap-strictness: proximity; --tw-gradient-from-position: ; --tw-gradient-via-position: ; --tw-gradient-to-position: ; --tw-ordinal: ; --tw-slashed-zero: ; --tw-numeric-figure: ; --tw-numeric-spacing: ; --tw-numeric-fraction: ; --tw-ring-inset: ; --tw-ring-offset-width: 0px; --tw-ring-offset-color: #fff; --tw-ring-color: rgba(69,89,164,.5); --tw-ring-offset-shadow: 0 0 #0000; --tw-ring-shadow: 0 0 #0000; --tw-shadow: 0 0 #0000; --tw-shadow-colored: 0 0 #0000; --tw-blur: ; --tw-brightness: ; --tw-contrast: ; --tw-grayscale: ; --tw-hue-rotate: ; --tw-invert: ; --tw-saturate: ; --tw-sepia: ; --tw-drop-shadow: ; --tw-backdrop-blur: ; --tw-backdrop-brightness: ; --tw-backdrop-contrast: ; --tw-backdrop-grayscale: ; --tw-backdrop-hue-rotate: ; --tw-backdrop-invert: ; --tw-backdrop-opacity: ; --tw-backdrop-saturate: ; --tw-backdrop-sepia: ; --tw-contain-size: ; --tw-contain-layout: ; --tw-contain-paint: ; --tw-contain-style: ; scrollbar-color: var(--gray-200) transparent; font-weight: 600; color: rgb(13, 13, 13); font-family: ui-sans-serif, -apple-system, system-ui, &amp;quot;Segoe UI&amp;quot;, Helvetica, &amp;quot;Apple Color Emoji&amp;quot;, Arial, sans-serif, &amp;quot;Segoe UI Emoji&amp;quot;, &amp;quot;Segoe UI Symbol&amp;quot;; font-size: 16px; text-align: left; text-wrap-mode: wrap; background-color: rgb(255, 255, 255);&quot;&gt;Processes&lt;/span&gt;" style="text;html=1;align=center;verticalAlign=middle;resizable=0;points=[];autosize=1;strokeColor=none;fillColor=none;" vertex="1" parent="1">
          <mxGeometry x="655" y="758" width="90" height="30" as="geometry" />
        </mxCell>
        <mxCell id="fvcA-mYY2RWgphkwgF5b-54" value="1" style="text;html=1;align=center;verticalAlign=middle;resizable=0;points=[];autosize=1;strokeColor=none;fillColor=none;fontSize=14;" vertex="1" parent="1">
          <mxGeometry x="535" y="758" width="30" height="30" as="geometry" />
        </mxCell>
        <mxCell id="fvcA-mYY2RWgphkwgF5b-55" value="0...*" style="text;html=1;align=center;verticalAlign=middle;resizable=0;points=[];autosize=1;strokeColor=none;fillColor=none;fontSize=16;" vertex="1" parent="1">
          <mxGeometry x="790" y="230" width="50" height="30" as="geometry" />
        </mxCell>
        <mxCell id="fvcA-mYY2RWgphkwgF5b-56" value="" style="endArrow=open;startArrow=none;endFill=0;startFill=0;endSize=8;html=1;verticalAlign=bottom;labelBackgroundColor=none;strokeWidth=1;rounded=0;exitX=0.535;exitY=1.038;exitDx=0;exitDy=0;exitPerimeter=0;entryX=0.996;entryY=0.087;entryDx=0;entryDy=0;entryPerimeter=0;" edge="1" parent="1" source="fvcA-mYY2RWgphkwgF5b-34" target="fvcA-mYY2RWgphkwgF5b-13">
          <mxGeometry width="160" relative="1" as="geometry">
            <mxPoint x="565" y="1312" as="sourcePoint" />
            <mxPoint x="692" y="810" as="targetPoint" />
            <Array as="points">
              <mxPoint x="-6" y="1090" />
              <mxPoint x="450" y="1090" />
              <mxPoint x="1000" y="1080" />
              <mxPoint x="1000" y="1020" />
              <mxPoint x="1000" y="930" />
              <mxPoint x="1000" y="848" />
              <mxPoint x="1000" y="740" />
              <mxPoint x="1000" y="380" />
              <mxPoint x="1000" y="183" />
            </Array>
          </mxGeometry>
        </mxCell>
        <mxCell id="fvcA-mYY2RWgphkwgF5b-57" value="&lt;span style=&quot;border: 0px solid rgb(227, 227, 227); box-sizing: border-box; --tw-border-spacing-x: 0; --tw-border-spacing-y: 0; --tw-translate-x: 0; --tw-translate-y: 0; --tw-rotate: 0; --tw-skew-x: 0; --tw-skew-y: 0; --tw-scale-x: 1; --tw-scale-y: 1; --tw-pan-x: ; --tw-pan-y: ; --tw-pinch-zoom: ; --tw-scroll-snap-strictness: proximity; --tw-gradient-from-position: ; --tw-gradient-via-position: ; --tw-gradient-to-position: ; --tw-ordinal: ; --tw-slashed-zero: ; --tw-numeric-figure: ; --tw-numeric-spacing: ; --tw-numeric-fraction: ; --tw-ring-inset: ; --tw-ring-offset-width: 0px; --tw-ring-offset-color: #fff; --tw-ring-color: rgba(69,89,164,.5); --tw-ring-offset-shadow: 0 0 #0000; --tw-ring-shadow: 0 0 #0000; --tw-shadow: 0 0 #0000; --tw-shadow-colored: 0 0 #0000; --tw-blur: ; --tw-brightness: ; --tw-contrast: ; --tw-grayscale: ; --tw-hue-rotate: ; --tw-invert: ; --tw-saturate: ; --tw-sepia: ; --tw-drop-shadow: ; --tw-backdrop-blur: ; --tw-backdrop-brightness: ; --tw-backdrop-contrast: ; --tw-backdrop-grayscale: ; --tw-backdrop-hue-rotate: ; --tw-backdrop-invert: ; --tw-backdrop-opacity: ; --tw-backdrop-saturate: ; --tw-backdrop-sepia: ; --tw-contain-size: ; --tw-contain-layout: ; --tw-contain-paint: ; --tw-contain-style: ; scrollbar-color: var(--gray-200) transparent; font-weight: 600; color: rgb(13, 13, 13); font-family: ui-sans-serif, -apple-system, system-ui, &amp;quot;Segoe UI&amp;quot;, Helvetica, &amp;quot;Apple Color Emoji&amp;quot;, Arial, sans-serif, &amp;quot;Segoe UI Emoji&amp;quot;, &amp;quot;Segoe UI Symbol&amp;quot;; font-size: 16px; text-align: left; text-wrap-mode: wrap; background-color: rgb(255, 255, 255);&quot;&gt;Processes&lt;/span&gt;" style="text;html=1;align=center;verticalAlign=middle;resizable=0;points=[];autosize=1;strokeColor=none;fillColor=none;" vertex="1" parent="1">
          <mxGeometry x="425" y="1060" width="90" height="30" as="geometry" />
        </mxCell>
        <mxCell id="fvcA-mYY2RWgphkwgF5b-58" value="1" style="text;html=1;align=center;verticalAlign=middle;resizable=0;points=[];autosize=1;strokeColor=none;fillColor=none;fontSize=14;" vertex="1" parent="1">
          <mxGeometry x="-10" y="860" width="30" height="30" as="geometry" />
        </mxCell>
        <mxCell id="fvcA-mYY2RWgphkwgF5b-59" value="0...*" style="text;html=1;align=center;verticalAlign=middle;resizable=0;points=[];autosize=1;strokeColor=none;fillColor=none;fontSize=16;" vertex="1" parent="1">
          <mxGeometry x="790" y="160" width="50" height="30" as="geometry" />
        </mxCell>
        <mxCell id="fvcA-mYY2RWgphkwgF5b-60" value="1" style="endArrow=open;html=1;endSize=12;startArrow=diamondThin;startSize=14;startFill=1;edgeStyle=orthogonalEdgeStyle;align=left;verticalAlign=bottom;rounded=0;exitX=0.5;exitY=0;exitDx=0;exitDy=0;fontSize=14;entryX=0.497;entryY=0.99;entryDx=0;entryDy=0;entryPerimeter=0;" edge="1" parent="1" source="fvcA-mYY2RWgphkwgF5b-26" target="fvcA-mYY2RWgphkwgF5b-13">
          <mxGeometry x="-0.8479" y="-15" relative="1" as="geometry">
            <mxPoint x="430" y="360" as="sourcePoint" />
            <mxPoint x="673" y="290" as="targetPoint" />
            <Array as="points">
              <mxPoint x="665" y="290" />
            </Array>
            <mxPoint y="1" as="offset" />
          </mxGeometry>
        </mxCell>
        <mxCell id="fvcA-mYY2RWgphkwgF5b-61" value="0...*" style="text;html=1;align=center;verticalAlign=middle;resizable=0;points=[];autosize=1;strokeColor=none;fillColor=none;fontSize=16;" vertex="1" parent="1">
          <mxGeometry x="660" y="285" width="50" height="30" as="geometry" />
        </mxCell>
        <mxCell id="fvcA-mYY2RWgphkwgF5b-63" value="1" style="text;html=1;align=center;verticalAlign=middle;resizable=0;points=[];autosize=1;strokeColor=none;fillColor=none;fontSize=14;" vertex="1" parent="1">
          <mxGeometry x="180" y="360" width="30" height="30" as="geometry" />
        </mxCell>
        <mxCell id="fvcA-mYY2RWgphkwgF5b-64" value="&lt;font style=&quot;font-size: 13px;&quot;&gt;initiated by&lt;/font&gt;" style="endArrow=open;endSize=12;dashed=1;html=1;rounded=0;exitX=-0.001;exitY=0.213;exitDx=0;exitDy=0;exitPerimeter=0;entryX=0.987;entryY=0.058;entryDx=0;entryDy=0;entryPerimeter=0;" edge="1" parent="1" source="fvcA-mYY2RWgphkwgF5b-13" target="fvcA-mYY2RWgphkwgF5b-9">
          <mxGeometry width="160" relative="1" as="geometry">
            <mxPoint x="355" y="174.41" as="sourcePoint" />
            <mxPoint x="515" y="174.41" as="targetPoint" />
          </mxGeometry>
        </mxCell>
        <mxCell id="fvcA-mYY2RWgphkwgF5b-66" value="1" style="text;html=1;align=center;verticalAlign=middle;resizable=0;points=[];autosize=1;strokeColor=none;fillColor=none;fontSize=14;" vertex="1" parent="1">
          <mxGeometry x="-290" y="45" width="30" height="30" as="geometry" />
        </mxCell>
        <mxCell id="fvcA-mYY2RWgphkwgF5b-67" value="1" style="endArrow=open;html=1;endSize=12;startArrow=diamondThin;startSize=14;startFill=1;edgeStyle=orthogonalEdgeStyle;align=left;verticalAlign=bottom;rounded=0;exitX=0.5;exitY=0;exitDx=0;exitDy=0;fontSize=14;entryX=0.462;entryY=0.002;entryDx=0;entryDy=0;entryPerimeter=0;" edge="1" parent="1" source="fvcA-mYY2RWgphkwgF5b-10" target="fvcA-mYY2RWgphkwgF5b-39">
          <mxGeometry x="-0.9918" y="-15" relative="1" as="geometry">
            <mxPoint x="371" y="75" as="sourcePoint" />
            <mxPoint x="370" y="-51" as="targetPoint" />
            <Array as="points">
              <mxPoint x="665" y="-51" />
              <mxPoint x="-294" y="-51" />
            </Array>
            <mxPoint as="offset" />
          </mxGeometry>
        </mxCell>
      </root>
    </mxGraphModel>
  </diagram>
</mxfile>
